<svg width="49" height="56" viewBox="0 0 49 56" fill="none" xmlns="http://www.w3.org/2000/svg">
<g clip-path="url(#clip0_2856_1633)">
<path fill-rule="evenodd" clip-rule="evenodd" d="M9.03082 10.1783C7.7992 10.3241 6.919 11.4408 7.06484 12.6724L11.0367 46.2159C11.1825 47.4475 12.2992 48.3277 13.5308 48.1819L20.0351 47.4117C21.2667 47.2659 22.1469 46.1492 22.0011 44.9176L21.0659 37.0196L26.9197 36.3264C34.6173 35.4149 40.1186 28.4359 39.2071 20.7383C38.2956 13.0407 31.3166 7.53945 23.619 8.45092L17.7651 9.14407L13.562 9.64176L9.03082 10.1783Z" fill="#211D26"/>
<path fill-rule="evenodd" clip-rule="evenodd" d="M0.984054 13.3924C0.440576 8.80258 3.72078 4.64121 8.31061 4.09773L22.8988 2.37036C33.9546 1.06125 43.9783 8.96251 45.2874 20.0183C46.5876 30.9984 38.803 40.9606 27.8661 42.3789L28.0814 44.1976C28.6249 48.7874 25.3447 52.9488 20.7549 53.4923L14.2506 54.2624C9.66075 54.8059 5.49939 51.5257 4.95592 46.9359L0.984054 13.3924ZM22.0008 44.9176C22.1467 46.1492 21.2665 47.2659 20.0349 47.4117L13.5306 48.1819C12.299 48.3277 11.1823 47.4475 11.0365 46.2159L7.06463 12.6724C6.91879 11.4408 7.79899 10.3241 9.03061 10.1783L23.6188 8.45093C31.3164 7.53946 38.2954 13.0407 39.2069 20.7383C40.1183 28.4359 34.6171 35.4149 26.9195 36.3264L21.0656 37.0196L22.0008 44.9176Z" fill="url(#paint0_linear_2856_1633)"/>
<path fill-rule="evenodd" clip-rule="evenodd" d="M9.03082 10.1783C7.7992 10.3241 6.919 11.4408 7.06484 12.6724L11.0367 46.2159C11.1825 47.4475 12.2992 48.3277 13.5308 48.1819L20.0351 47.4117C21.2667 47.2659 22.1469 46.1492 22.0011 44.9176L21.0659 37.0196L26.9197 36.3264C34.6173 35.4149 40.1186 28.4359 39.2071 20.7383C38.2956 13.0407 31.3166 7.53945 23.619 8.45092L17.7651 9.14407L13.562 9.64176L9.03082 10.1783Z" fill="white"/>
<path fill-rule="evenodd" clip-rule="evenodd" d="M4.02445 13.0324C3.67979 10.1217 5.75999 7.48269 8.67071 7.13803L23.2589 5.41065C32.6356 4.30037 41.137 11.0016 42.2473 20.3783C43.3576 29.755 36.6563 38.2564 27.2796 39.3667L24.466 39.6999L25.0412 44.5576C25.3859 47.4683 23.3057 50.1073 20.395 50.452L13.8907 51.2222C10.98 51.5668 8.34096 49.4866 7.99631 46.5759L4.02445 13.0324ZM22.0009 44.9176C22.1468 46.1492 21.2666 47.2659 20.035 47.4117L13.5307 48.1819C12.2991 48.3277 11.1824 47.4475 11.0366 46.2159L7.06473 12.6724C6.9189 11.4408 7.7991 10.3242 9.03071 10.1783L23.6189 8.45094C31.3165 7.53947 38.2955 13.0407 39.207 20.7383C40.1184 28.4359 34.6172 35.415 26.9196 36.3264L21.0657 37.0196L22.0009 44.9176Z" fill="#211D26"/>
<path fill-rule="evenodd" clip-rule="evenodd" d="M16.5542 16.1362L15.8402 16.2192C14.0947 16.4221 12.8442 18.0017 13.0472 19.7472L13.655 24.9746C13.8579 26.7201 15.4374 27.9706 17.183 27.7676L17.897 27.6846C21.086 27.3138 23.3706 24.428 22.9998 21.239C22.629 18.05 19.7432 15.7654 16.5542 16.1362Z" fill="#211D26"/>
<path fill-rule="evenodd" clip-rule="evenodd" d="M16.5978 18.5387C16.2578 18.1933 15.7721 18.3692 15.4004 18.8933C15.1332 19.27 15.0469 19.7388 14.9755 20.1951Lnan nanL14.9755 20.1951C14.8111 21.2443 14.8979 22.3176 15.2287 23.3268L15.4957 24.1415C15.6255 24.5375 15.7635 24.9424 16.0423 25.2522C16.5233 25.7865 17.1829 25.995 17.6475 25.6372C18.8177 24.7363 16.5889 23.7531 16.3496 21.6947C16.2118 20.5093 17.1772 19.1181 16.5978 18.5387Z" fill="white"/>
<path d="M20.1644 19.3436C20.1644 19.8928 19.7192 20.3379 19.1701 20.3379C18.621 20.3379 18.1758 19.8928 18.1758 19.3436C18.1758 18.7945 18.621 18.3493 19.1701 18.3493C19.7192 18.3493 20.1644 18.7945 20.1644 19.3436Z" fill="white"/>
<path fill-rule="evenodd" clip-rule="evenodd" d="M27.5933 14.6742L26.8793 14.7572C25.1338 14.9601 23.8833 16.5397 24.0862 18.2852L24.694 23.5126C24.897 25.2581 26.4765 26.5086 28.222 26.3056L28.936 26.2226C32.125 25.8518 34.4097 22.966 34.0389 19.777C33.6681 16.588 30.7823 14.3034 27.5933 14.6742Z" fill="#211D26"/>
<path fill-rule="evenodd" clip-rule="evenodd" d="M27.6368 17.0767C27.2968 16.7313 26.8112 16.9072 26.4395 17.4313C26.1723 17.808 26.086 18.2768 26.0145 18.7331Lnan nanL26.0145 18.7331C25.8502 19.7823 25.937 20.8556 26.2678 21.8648L26.5348 22.6795C26.6646 23.0755 26.8025 23.4804 27.0813 23.7902C27.5623 24.3245 28.2219 24.533 28.6866 24.1752C29.8568 23.2743 27.628 22.2911 27.3886 20.2327C27.2508 19.0473 28.2162 17.6561 27.6368 17.0767Z" fill="white"/>
<path d="M31.2054 17.8816C31.2054 18.4308 30.7603 18.876 30.2111 18.876C29.662 18.876 29.2168 18.4308 29.2168 17.8816C29.2168 17.3325 29.662 16.8873 30.2111 16.8873C30.7603 16.8873 31.2054 17.3325 31.2054 17.8816Z" fill="white"/>
<ellipse cx="28.0289" cy="12.5311" rx="5.52604" ry="1.75419" transform="rotate(-8.84495 28.0289 12.5311)" fill="white"/>
<ellipse cx="16.7512" cy="14.0903" rx="5.52604" ry="1.61227" transform="rotate(-8.84495 16.7512 14.0903)" fill="white"/>
</g>
<defs>
<linearGradient id="paint0_linear_2856_1633" x1="29.5987" y1="7.74285" x2="-3.13999" y2="49.2601" gradientUnits="userSpaceOnUse">
<stop stop-color="#0090FF"/>
<stop offset="0.698054" stop-color="#8DC8E8"/>
</linearGradient>
<clipPath id="clip0_2856_1633">
<rect width="48.8571" height="55.2465" fill="white"/>
</clipPath>
</defs>
</svg>
